<!DOCTYPE svg PUBLIC "-//W3C//DTD SVG 1.1//EN" "http://www.w3.org/Graphics/SVG/1.1/DTD/svg11.dtd">
<!-- Uploaded to: SVG Repo, www.svgrepo.com, Transformed by: SVG Repo Mixer Tools -->
<svg fill="#000000" height="800px" width="800px" version="1.1" xmlns="http://www.w3.org/2000/svg" xmlns:xlink="http://www.w3.org/1999/xlink" viewBox="0 0 24 24" enable-background="new 0 0 24 24" xml:space="preserve">
<g id="SVGRepo_bgCarrier" stroke-width="0"/>
<g id="SVGRepo_tracerCarrier" stroke-linecap="round" stroke-linejoin="round"/>
<g id="SVGRepo_iconCarrier"> <g id="user-new"> <path d="M2,19c0-3.9,3.1-7,7-7c1.8,0,2.3,0.2,3.6,0.8l1-1.6c-0.3-0.2-0.7-0.3-0.9-0.5C14.1,9.6,15,7.9,15,6c0-3.3-2.7-6-6-6 S3,2.7,3,6c0,1.9,0.9,3.7,2.4,4.8C2.2,12.2,0,15.3,0,19v5h11v-2H2V19z M5,6c0-2.2,1.8-4,4-4s4,1.8,4,4s-1.8,4-4,4S5,8.2,5,6z"/> <path d="M20,18l3.7,2.1l-1,1.7L19,19.7V24h-2v-4.3l-3.7,2.1l-1-1.7L16,18l-3.7-2.1l1-1.7l3.7,2.1V12h2v4.3l3.7-2.1l1,1.7L20,18z"/> </g> </g>
</svg>